<?xml version="1.0" encoding="UTF-8"?>
<svg width="157px" height="34px" viewBox="0 0 157 34" version="1.1" xmlns="http://www.w3.org/2000/svg" xmlns:xlink="http://www.w3.org/1999/xlink">
    <!-- Generator: Sketch 49.1 (51147) - http://www.bohemiancoding.com/sketch -->
    <title>logo_small</title>
    <desc>Created with Sketch.</desc>
    <defs></defs>
    <g id="Page-1" stroke="none" stroke-width="1" fill="none" fill-rule="evenodd">
        <g id="PC" transform="translate(-65.000000, -60.000000)" fill="#FFFFFF" fill-rule="nonzero">
            <g id="top">
                <g id="header" transform="translate(65.000000, 58.000000)">
                    <g id="logo_small" transform="translate(0.000000, 2.000000)">
                        <g id="logo">
                            <polygon id="Shape" points="0 33 0 3 4.25135393 3 4.25135393 29.3072727 17 29.3072727 17 33"></polygon>
                            <path d="M38.1857157,32.339311 C35.6523555,33.425913 32.9233932,33.9908665 30.1638916,34 C26.8487871,34 24.3260291,32.9706623 22.5956175,30.9119868 C20.8652058,28.8533113 20,26.0782602 20,22.5868334 C20,19.0917886 20.8287761,16.287793 22.4863283,14.1748466 C24.1438805,12.0619003 26.5609924,11.0036181 29.7376639,11 C35.9307161,11 39.0181347,14.6180588 38.9999199,21.8541765 L38.9999199,23.4334592 L24.5464289,23.4334592 C24.5464289,28.4589429 26.5628139,30.9716848 30.5955837,30.9716848 C32.8902112,30.9411205 35.1643358,30.5378039 37.3277958,29.7777253 L38.1857157,32.339311 Z M34.6939271,20.7958943 C34.6939271,18.625059 34.3387373,16.9155262 33.6010355,15.7052855 C32.8633337,14.4950448 31.5791861,13.8980651 29.6775548,13.8980651 C27.7759235,13.8980651 26.4972404,14.505899 25.7704675,15.6835772 C25.0436946,16.8612553 24.6338602,18.5816423 24.5464289,20.7958943 L34.6939271,20.7958943 Z" id="Shape"></path>
                            <path d="M48.6307844,22.5108607 C48.6307844,25.1826026 49.1422164,27.2787253 50.1650804,28.7992288 C51.1210321,30.28709 52.8275285,31.1570161 54.628487,31.0745537 C56.4892342,31.0862114 58.3413958,30.8281549 60.1240564,30.3088716 L61,32.9100187 C59.0510329,33.673119 56.9630251,34.0426257 54.8628159,33.9960926 C47.6209386,33.9960926 44,30.1604415 44,22.4891393 C44,14.817837 47.6172191,10.9894264 54.8516574,11.0039074 C56.9518666,10.9573743 59.0398744,11.326881 60.9888415,12.0899813 L60.1128979,14.6042425 C58.3748518,14.0948561 56.5660864,13.8512078 54.7512307,13.8820033 C52.9100332,13.7849703 51.1592462,14.6660967 50.1762389,16.1844801 C49.1459359,17.7303253 48.6307844,19.8391189 48.6307844,22.5108607 Z" id="Shape"></path>
                            <path d="M91.9909744,7.49558859 C89.8932862,6.80995079 87.7064331,6.42048863 85.4964171,6.33895658 C83.9896707,6.29051234 82.494044,6.6072463 81.1425551,7.2609887 C79.9961529,7.85635157 79.0583013,8.77419764 78.4499618,9.89614561 C77.8077505,11.0849737 77.3511308,12.3612466 77.0953031,13.6824787 C76.8002588,15.2716437 76.6621125,16.8849018 76.6827733,18.4999602 C76.6621125,20.1150185 76.8002588,21.7282766 77.0953031,23.3174416 C77.3509828,24.6417718 77.8155176,25.9191413 78.4722607,27.1037748 C79.761881,29.4788713 82.0512356,30.664601 85.3403247,30.6609638 C87.6571384,30.5560749 89.9444491,30.1091068 92.1247678,29.3352016 L93,32.4559257 C90.5691272,33.4818849 87.9485758,34.0074436 85.3013016,33.9999204 C76.4300523,33.9999204 71.9962858,28.833267 72.0000023,18.4999602 C72.0037188,8.16665339 76.4523512,3 85.3458994,3 C87.9262441,3.0536683 90.4755972,3.56190338 92.8717813,4.50034813 L91.9909744,7.49558859 Z" id="Shape"></path>
                            <path d="M115.337074,18.2264771 L115.337074,28.2382154 C115.29194,28.940948 115.396427,29.6451787 115.64399,30.3068012 C115.939881,30.7876626 116.433694,31.1218071 117,31.2243629 L116.386168,33.7815911 C115.967633,33.9617408 115.506531,34.0274398 115.052479,33.9716186 C114.470301,33.979545 113.895162,33.8471102 113.378393,33.5861341 C112.83006,33.2301076 112.390532,32.7368217 112.106087,32.1582127 L111.447613,31.0126179 L110.750077,31.0126179 C109.242361,32.9813319 106.831561,34.0972177 104.310425,33.9933361 C102.07831,33.9933361 100.298198,33.417824 98.970089,32.2667999 C97.6419805,31.1157757 96.9853666,29.4471527 97.0002473,27.2609307 C97.0002473,25.089187 97.729405,23.4603793 99.1877203,22.3745075 C100.644175,21.2886356 102.926513,20.6425419 106.017993,20.4145088 L111.012351,20.0344537 L111.012351,18.6119616 C111.012351,16.9071428 110.640332,15.6927761 109.896293,14.9688616 C109.137374,14.2413274 107.870649,13.8829897 106.107278,13.8829897 C103.880696,13.9443364 101.66903,14.25773 99.5169573,14.8168395 L98.6966549,12.3193343 C99.9187203,11.8918347 101.180037,11.5791255 102.463349,11.3854845 C103.763133,11.1496594 105.081014,11.0207093 106.403033,11 C109.349425,11 111.58154,11.5755121 113.099379,12.7265362 C114.617217,13.8775604 115.363115,15.710874 115.337074,18.2264771 Z M111.00119,26.4356681 L111.00119,22.6351167 L106.793653,22.9337315 C103.233429,23.1871015 101.453317,24.5661588 101.453317,27.0709031 C101.453317,29.7349087 102.826068,31.0687213 105.57157,31.0723408 C106.948591,31.1224851 108.305881,30.7419146 109.44429,29.986469 C110.482223,29.2860817 111.00119,28.097052 111.00119,26.4356681 Z" id="Shape"></path>
                            <path d="M124.265157,9.32027641 C124.265157,6.34449194 124.902484,4.20937562 126.177137,2.91492745 C127.45179,1.62047929 129.551863,0.982294646 132.477356,1.00037353 C133.657904,1.00271653 134.8362,1.10249598 136,1.29867513 L135.528853,4.06474454 C134.529414,3.94188853 133.522759,3.88571724 132.515705,3.89661091 C129.897005,3.8821478 128.587655,5.42066092 128.587655,8.51215025 L128.587655,11.0233074 L134.948137,11.0233074 L134.948137,13.9195448 L128.587655,13.9195448 L128.587655,33 L124.287071,33 L124.287071,13.9195448 L121,13.9195448 L121,12.4280367 L124.287071,11.0233074 L124.265157,9.32027641 Z" id="Shape"></path>
                            <path d="M147.745649,10.7310612 C153.933362,10.7310612 157.018119,14.3922899 156.99992,21.7147472 L156.99992,23.3128735 L142.558889,23.3128735 C142.558889,28.3983201 144.573536,30.9410435 148.602829,30.9410435 C150.895516,30.9105094 153.167743,30.5023692 155.329237,29.732838 L156.186418,32.319496 C153.689535,33.3818202 151.01318,33.9523042 148.302543,34 L148.15513,34 C144.839243,34 142.31866,32.9583804 140.59338,30.8751413 C138.8681,28.7919022 138.00364,25.9837398 138,22.4506542 C138,18.9139073 138.829882,16.0764551 140.489645,13.9382975 C142.149408,11.80014 144.568076,10.7310612 147.745649,10.7310612 Z M147.745649,13.6637054 C145.845657,13.6637054 144.531677,14.2659775 143.803711,15.4705217 C143.075745,16.675066 142.668084,18.3995047 142.580728,20.6438378 L152.735857,20.6438378 C152.735857,18.4471006 152.380974,16.7171701 151.643908,15.4924891 C150.906842,14.2678081 149.623802,13.6637054 147.72381,13.6637054 L147.745649,13.6637054 Z M153.511142,2.84477467 C153.511142,3.62095515 153.025224,4.22505788 152.053389,4.65708286 L144.595375,8.18833791 L143.241357,6.24971733 L151.81316,0 L153.189016,1.93862058 C153.380205,2.20199088 153.485155,2.5186908 153.489303,2.84477467 L153.511142,2.84477467 Z" id="Shape"></path>
                        </g>
                    </g>
                </g>
            </g>
        </g>
    </g>
</svg>